#!OML:ASF I:\golf\golf\golf 2\Subject 1\2002-09-07\Subject1.ASF
:FULLY-SPECIFIED
:DEGREES
368
root -6.8545 17.9814 -4.14274 -169.458 -6.1755 -175.098
lowerback -12.1328 17.5811 14.4566
upperback -15.0341 19.5281 -0.0618149
thorax -5.3792 7.38353 -5.06608
lowerneck -5.26376 -22.272 -4.81405
upperneck 9.78625 -31.8697 7.72546
head 5.78033 -15.6456 0.451435
rclavicle 1.73937e-013 1.0138e-013
rhumerus 101.35 31.7899 -54.872
rradius 76.609
rwrist 7.64249
rhand -54.5634 41.9874
rfingers 7.12502
rthumb -26.9625 13.8912
lclavicle 1.73937e-013 1.0138e-013
lhumerus 56.7268 26.4397 49.2742
lradius 81.8135
lwrist 0.623188
lhand 138.405 200.048
lfingers 7.12502
lthumb -194.505 -130.479
rfemur 19.6488 -5.41058 23.9639
rtibia 11.6637
rfoot 35.062 -32.5169
rtoes 25.0016
lfemur -24.1346 -17.7018 -15.1943
ltibia 26.8146
lfoot 48.8221 -43.8923
ltoes 55.5355
369
root -6.84824 17.9821 -4.14518 -169.348 -6.13531 -175.078
lowerback -12.0848 17.5791 14.5264
upperback -15.0311 19.5361 -0.119042
thorax -5.35885 7.38342 -5.16109
lowerneck -5.25374 -22.2122 -4.84809
upperneck 9.85806 -31.7591 7.62081
head 5.78266 -15.5952 0.438787
rclavicle -7.15625e-015 1.19271e-015
rhumerus 100.823 31.6902 -55.2337
rradius 76.4941
rwrist 7.01782
rhand -54.2331 41.7612
rfingers 7.12502
rthumb -26.6464 13.6166
lclavicle -7.15625e-015 1.19271e-015
lhumerus 56.6713 26.0823 48.7977
lradius 81.164
lwrist 0.439887
lhand 138.781 200.105
lfingers 7.12502
lthumb -194.143 -130.396
rfemur 19.6031 -5.40253 24.0239
rtibia 11.5497
rfoot 35.1818 -32.3503
rtoes 24.8124
lfemur -24.2811 -17.6958 -15.1113
ltibia 26.8717
lfoot 48.8971 -43.7
ltoes 55.7263
370
root -6.84245 17.9839 -4.14699 -169.183 -6.07671 -175.189
lowerback -12.1305 17.513 14.4176
upperback -15.0033 19.4558 -0.167201
thorax -5.32798 7.35728 -5.16744
lowerneck -5.17822 -22.068 -4.91537
upperneck 9.89234 -31.5466 7.60666
head 5.77723 -15.4964 0.471209
rclavicle -1.40541e-013 -5.4467e-014
rhumerus 100.42 31.7589 -55.6374
rradius 76.2949
rwrist 6.54922
rhand -53.9309 41.4992
rfingers 7.12502
rthumb -26.3572 13.3109
lclavicle -1.40541e-013 -5.4467e-014
lhumerus 56.6974 25.7969 48.4802
lradius 80.3193
lwrist 0.235963
lhand 139.388 199.621
lfingers 7.12502
lthumb -193.558 -130.84
rfemur 19.4909 -5.4901 23.8904
rtibia 11.4885
rfoot 35.3893 -31.9223
rtoes 24.2551
lfemur -24.4556 -17.6754 -15.17
ltibia 26.8941
lfoot 48.9497 -43.7042
ltoes 55.8106
371
root -6.83461 17.9848 -4.14696 -169.071 -6.04053 -175.222
lowerback -12.0988 17.4117 14.3601
upperback -14.9565 19.3463 -0.171968
thorax -5.3216 7.31516 -5.17659
lowerneck -5.21373 -21.9066 -5.08131
upperneck 10.0703 -31.3256 7.61802
head 5.85278 -15.3844 0.492713
rclavicle -7.89175e-014 -6.71892e-014
rhumerus 100.061 31.8128 -56.0195
rradius 76.0104
rwrist 6.21358
rhand -53.9804 41.1245
rfingers 7.12502
rthumb -26.4045 12.9433
lclavicle -7.89175e-014 -6.71892e-014
lhumerus 56.1126 25.601 46.9759
lradius 79.9728
lwrist 0.836973
lhand 139.756 199.693
lfingers 7.12502
lthumb -193.203 -130.745
rfemur 19.3752 -5.49769 23.8849
rtibia 11.5035
rfoot 35.1754 -31.9525
rtoes 24.2271
lfemur -24.5569 -17.6431 -15.1386
ltibia 26.8738
lfoot 48.8096 -43.8915
ltoes 55.6734
372
root -6.82526 17.9868 -4.14573 -168.957 -5.96766 -175.157
lowerback -12.0172 17.383 14.3826
upperback -14.9115 19.3342 -0.153598
thorax -5.31376 7.3148 -5.18588
lowerneck -5.23715 -21.8711 -5.44741
upperneck 10.2113 -31.2576 7.66794
head 5.95848 -15.3462 0.523117
rclavicle 1.11319e-013 6.2816e-014
rhumerus 99.6394 31.6618 -56.2341
rradius 75.736
rwrist 5.79703
rhand -53.9912 41.0349
rfingers 7.12502
rthumb -26.4149 12.8553
lclavicle 1.11319e-013 6.2816e-014
lhumerus 55.991 25.2385 46.2252
lradius 79.3106
lwrist 1.07863
lhand 140.156 199.84
lfingers 7.12502
lthumb -192.817 -130.573
rfemur 19.2367 -5.37929 24.0152
rtibia 11.5287
rfoot 34.7829 -32.2952
rtoes 24.3979
lfemur -24.6755 -17.5621 -15.0013
ltibia 26.8455
lfoot 48.7887 -43.7972
ltoes 55.724
373
root -6.81702 17.9899 -4.14484 -168.806 -5.82845 -175.105
lowerback -11.9675 17.3995 14.416
upperback -14.8908 19.3666 -0.160604
thorax -5.29818 7.33069 -5.20871
lowerneck -5.26606 -21.7666 -5.68802
upperneck 10.4098 -31.131 7.74239
head 6.06615 -15.2779 0.553508
rclavicle 2.32578e-014 1.74931e-014
rhumerus 99.1079 31.5397 -56.5901
rradius 75.4026
rwrist 5.46365
rhand -53.9682 40.7512
rfingers 7.12502
rthumb -26.3929 12.5683
lclavicle 2.32578e-014 1.74931e-014
lhumerus 55.8049 24.7925 45.6109
lradius 78.8474
lwrist 1.32447
lhand 140.444 200.265
lfingers 7.12502
lthumb -192.54 -130.131
rfemur 19.0959 -5.26905 24.0836
rtibia 11.4988
rfoot 34.7053 -32.3475
rtoes 24.1346
lfemur -24.831 -17.5491 -14.8628
ltibia 26.832
lfoot 48.6605 -43.5961
ltoes 55.7956
374
root -6.80841 17.9925 -4.1423 -168.722 -5.69863 -175.111
lowerback -11.8312 17.3402 14.4197
upperback -14.8437 19.331 -0.150219
thorax -5.32171 7.31933 -5.23757
lowerneck -5.42793 -21.6601 -5.32744
upperneck 10.5748 -30.8856 7.18366
head 5.98531 -15.1689 0.398624
rclavicle -6.75868e-014 -2.42517e-014
rhumerus 98.5526 31.5928 -57.1648
rradius 75.1022
rwrist 5.06728
rhand -53.5128 40.6217
rfingers 7.12502
rthumb -25.9568 12.3741
lclavicle -6.75868e-014 -2.42517e-014
lhumerus 55.6111 24.4128 44.8588
lradius 78.1882
lwrist 1.80403
lhand 140.628 200.491
lfingers 7.12502
lthumb -192.362 -129.895
rfemur 19.0557 -5.19065 24.0879
rtibia 11.4349
rfoot 34.6304 -32.4301
rtoes 24.1893
lfemur -24.8999 -17.594 -14.7907
ltibia 26.8099
lfoot 48.3717 -43.5414
ltoes 55.7116
375
root -6.79913 17.9946 -4.13631 -168.692 -5.57579 -175.172
lowerback -11.6088 17.2306 14.3595
upperback -14.7455 19.2661 -0.0982983
thorax -5.36773 7.30812 -5.22193
lowerneck -5.62323 -21.58 -5.35703
upperneck 10.7214 -30.7271 7.01667
head 6.03025 -15.0855 0.346894
rclavicle -1.72943e-014 -4.92986e-014
rhumerus 98.0984 31.5717 -57.5189
rradius 74.8457
rwrist 4.49472
rhand -52.94 40.5101
rfingers 7.12502
rthumb -25.4083 12.1834
lclavicle -1.72943e-014 -4.92986e-014
lhumerus 55.4951 24.0471 44.1807
lradius 77.4961
lwrist 2.24776
lhand 141.14 200.657
lfingers 7.12502
lthumb -191.869 -129.699
rfemur 19.0793 -5.1051 24.0517
rtibia 11.3691
rfoot 34.1866 -32.9287
rtoes 24.5475
lfemur -24.908 -17.5783 -14.8056
ltibia 26.7705
lfoot 48.2641 -43.446
ltoes 55.6951
